<svg width="71" height="71" viewBox="0 0 71 71" fill="none" xmlns="http://www.w3.org/2000/svg">
<g filter="url(#filter0_d_41_72635)">
<path d="M63.8302 19.8391L63.6756 19.4624L63.3885 19.7511L57.6696 25.5002L57.5606 25.6098L57.5998 25.7594C58.0779 27.5821 58.3172 29.4652 58.3172 31.4096C58.3172 44.0293 48.0596 54.2869 35.4399 54.2869C22.7897 54.2869 12.5323 44.0291 12.5323 31.4096C12.5323 29.4344 12.7717 27.521 13.2497 25.6988L13.2889 25.5493L13.1798 25.4396L7.46101 19.6906L7.17292 19.4009L7.01899 19.7793C5.55408 23.3806 4.72969 27.2881 4.72969 31.4096C4.72969 48.322 18.4972 62.0895 35.4096 62.0895C52.322 62.0895 66.0895 48.322 66.0895 31.4096C66.0895 27.3198 65.2959 23.4119 63.8302 19.8391ZM54.4294 18.7004L54.6125 18.9735L54.845 18.741L60.0495 13.5365L60.2143 13.3717L60.0755 13.1845C54.4897 5.64515 45.5148 0.729692 35.4096 0.729692C25.3351 0.729692 16.36 5.61454 10.774 13.1542L10.6352 13.3415L10.8 13.5063L16.0044 18.7107L16.237 18.9432L16.4201 18.6701C19.8893 13.4962 25.4218 9.81817 31.8204 8.80138C32.9861 8.62207 34.1825 8.5323 35.4096 8.5323C36.6368 8.5323 37.8332 8.62208 38.999 8.8014C45.4272 9.81813 50.9598 13.5259 54.4294 18.7004Z" fill="#75BF7A" stroke="#75BF7A" stroke-width="0.540615"/>
</g>
<defs>
<filter id="filter0_d_41_72635" x="0.459473" y="0.459473" width="69.9004" height="69.9004" filterUnits="userSpaceOnUse" color-interpolation-filters="sRGB">
<feFlood flood-opacity="0" result="BackgroundImageFix"/>
<feColorMatrix in="SourceAlpha" type="matrix" values="0 0 0 0 0 0 0 0 0 0 0 0 0 0 0 0 0 0 127 0" result="hardAlpha"/>
<feOffset dy="4"/>
<feGaussianBlur stdDeviation="2"/>
<feComposite in2="hardAlpha" operator="out"/>
<feColorMatrix type="matrix" values="0 0 0 0 0 0 0 0 0 0 0 0 0 0 0 0 0 0 0.25 0"/>
<feBlend mode="normal" in2="BackgroundImageFix" result="effect1_dropShadow_41_72635"/>
<feBlend mode="normal" in="SourceGraphic" in2="effect1_dropShadow_41_72635" result="shape"/>
</filter>
</defs>
</svg>
