<svg width="206" height="144" viewBox="0 0 206 144" fill="none" xmlns="http://www.w3.org/2000/svg">
<path d="M10.45 12.014C11.1687 12.366 11.7333 12.8573 12.144 13.488C12.5547 14.1187 12.76 14.8373 12.76 15.644C12.76 16.876 12.3273 17.91 11.462 18.746C10.5967 19.582 9.54067 20 8.294 20H1.65V4.6H7.81C9.02733 4.6 10.0467 5.00333 10.868 5.81C11.704 6.61667 12.122 7.614 12.122 8.802C12.122 10.1807 11.5647 11.2513 10.45 12.014ZM7.81 6.514H3.696V11.222H7.81C8.45533 11.222 8.998 10.9947 9.438 10.54C9.878 10.0853 10.098 9.528 10.098 8.868C10.098 8.22267 9.87067 7.67267 9.416 7.218C8.976 6.74867 8.44067 6.514 7.81 6.514ZM3.696 18.086H8.294C8.98333 18.086 9.56267 17.844 10.032 17.36C10.5013 16.876 10.736 16.282 10.736 15.578C10.736 14.8887 10.494 14.302 10.01 13.818C9.55533 13.334 8.98333 13.092 8.294 13.092H3.696V18.086ZM25.6116 15.38H16.3936C16.5843 16.348 17.0316 17.1107 17.7356 17.668C18.4396 18.2107 19.3196 18.482 20.3756 18.482C21.8276 18.482 22.8836 17.9467 23.5436 16.876L25.1716 17.8C24.0863 19.4573 22.4729 20.286 20.3316 20.286C18.6009 20.286 17.1783 19.7433 16.0636 18.658C14.9783 17.5433 14.4356 16.1573 14.4356 14.5C14.4356 12.828 14.9709 11.4493 16.0416 10.364C17.1123 9.264 18.4983 8.714 20.1996 8.714C21.8129 8.714 23.1256 9.286 24.1376 10.43C25.1643 11.5447 25.6776 12.9087 25.6776 14.522C25.6776 14.8007 25.6556 15.0867 25.6116 15.38ZM20.1996 10.518C19.1876 10.518 18.3369 10.804 17.6476 11.376C16.9729 11.948 16.5549 12.7253 16.3936 13.708H23.7416C23.5803 12.696 23.1769 11.9113 22.5316 11.354C21.8863 10.7967 21.1089 10.518 20.1996 10.518ZM32.7618 12.3C32.7618 10.0707 33.5318 8.186 35.0718 6.646C36.6118 5.09133 38.4964 4.314 40.7258 4.314C42.9551 4.314 44.8398 5.09133 46.3798 6.646C47.9344 8.186 48.7118 10.0707 48.7118 12.3C48.7118 14.5147 47.9344 16.3993 46.3798 17.954C44.8398 19.5087 42.9551 20.286 40.7258 20.286C38.4964 20.286 36.6118 19.5087 35.0718 17.954C33.5318 16.3847 32.7618 14.5 32.7618 12.3ZM46.6658 12.3C46.6658 10.5987 46.0938 9.176 44.9498 8.032C43.8351 6.87333 42.4271 6.294 40.7258 6.294C39.0391 6.294 37.6238 6.87333 36.4798 8.032C35.3504 9.19067 34.7858 10.6133 34.7858 12.3C34.7858 13.972 35.3504 15.3947 36.4798 16.568C37.6238 17.712 39.0391 18.284 40.7258 18.284C42.4271 18.284 43.8351 17.712 44.9498 16.568C46.0938 15.3947 46.6658 13.972 46.6658 12.3ZM58.6709 14.83V9H60.5849V20H58.6709V18.416C57.9082 19.6627 56.7202 20.286 55.1069 20.286C53.8162 20.286 52.7822 19.8827 52.0049 19.076C51.2276 18.2547 50.8389 17.1473 50.8389 15.754V9H52.7529V15.644C52.7529 16.524 52.9949 17.2133 53.4789 17.712C53.9629 18.2107 54.6302 18.46 55.4809 18.46C56.4636 18.46 57.2409 18.1593 57.8129 17.558C58.3849 16.942 58.6709 16.0327 58.6709 14.83ZM65.4129 9V10.848C66.0435 9.484 67.1875 8.802 68.8449 8.802V10.804C67.9062 10.76 67.0995 11.0093 66.4249 11.552C65.7502 12.0947 65.4129 12.9673 65.4129 14.17V20H63.4989V9H65.4129ZM85.2816 4.6V6.536H78.4616V11.53H84.9956V13.466H78.4616V20H76.4156V4.6H85.2816ZM89.4754 9V10.848C90.106 9.484 91.25 8.802 92.9074 8.802V10.804C91.9687 10.76 91.162 11.0093 90.4874 11.552C89.8127 12.0947 89.4754 12.9673 89.4754 14.17V20H87.5614V9H89.4754ZM95.7481 6.998C95.3815 6.998 95.0735 6.87333 94.8241 6.624C94.5748 6.37467 94.4501 6.074 94.4501 5.722C94.4501 5.37 94.5748 5.06933 94.8241 4.82C95.0735 4.556 95.3815 4.424 95.7481 4.424C96.1001 4.424 96.4008 4.556 96.6501 4.82C96.8995 5.06933 97.0241 5.37 97.0241 5.722C97.0241 6.074 96.8995 6.37467 96.6501 6.624C96.4008 6.87333 96.1001 6.998 95.7481 6.998ZM96.6941 20H94.7801V9H96.6941V20ZM110.174 15.38H100.956C101.147 16.348 101.594 17.1107 102.298 17.668C103.002 18.2107 103.882 18.482 104.938 18.482C106.39 18.482 107.446 17.9467 108.106 16.876L109.734 17.8C108.649 19.4573 107.035 20.286 104.894 20.286C103.163 20.286 101.741 19.7433 100.626 18.658C99.5408 17.5433 98.9981 16.1573 98.9981 14.5C98.9981 12.828 99.5334 11.4493 100.604 10.364C101.675 9.264 103.061 8.714 104.762 8.714C106.375 8.714 107.688 9.286 108.7 10.43C109.727 11.5447 110.24 12.9087 110.24 14.522C110.24 14.8007 110.218 15.0867 110.174 15.38ZM104.762 10.518C103.75 10.518 102.899 10.804 102.21 11.376C101.535 11.948 101.117 12.7253 100.956 13.708H108.304C108.143 12.696 107.739 11.9113 107.094 11.354C106.449 10.7967 105.671 10.518 104.762 10.518ZM117.918 8.714C119.209 8.714 120.243 9.12467 121.02 9.946C121.798 10.7527 122.186 11.8527 122.186 13.246V20H120.272V13.356C120.272 12.476 120.03 11.7867 119.546 11.288C119.062 10.7893 118.395 10.54 117.544 10.54C116.562 10.54 115.784 10.848 115.212 11.464C114.64 12.0653 114.354 12.9673 114.354 14.17V20H112.44V9H114.354V10.584C115.117 9.33733 116.305 8.714 117.918 8.714ZM133.966 10.892V4.6H135.88V20H133.966V18.108C133.028 19.56 131.642 20.286 129.808 20.286C128.254 20.286 126.941 19.7287 125.87 18.614C124.785 17.4847 124.242 16.1133 124.242 14.5C124.242 12.9013 124.785 11.5373 125.87 10.408C126.956 9.27867 128.268 8.714 129.808 8.714C131.642 8.714 133.028 9.44 133.966 10.892ZM130.05 18.438C131.165 18.438 132.096 18.064 132.844 17.316C133.592 16.5387 133.966 15.6 133.966 14.5C133.966 13.3853 133.592 12.454 132.844 11.706C132.096 10.9433 131.165 10.562 130.05 10.562C128.95 10.562 128.026 10.9433 127.278 11.706C126.53 12.454 126.156 13.3853 126.156 14.5C126.156 15.6 126.53 16.5387 127.278 17.316C128.026 18.064 128.95 18.438 130.05 18.438Z" fill="#272042"/>
<path d="M8.28 52.588L5.346 56.638C6.342 56.758 7.17 57.148 7.83 57.808C8.49 58.432 8.82 59.278 8.82 60.346C8.82 61.534 8.406 62.482 7.578 63.19C6.774 63.874 5.778 64.216 4.59 64.216C3.642 64.216 2.802 64 2.07 63.568C1.338 63.124 0.828 62.506 0.54 61.714L1.584 61.102C1.788 61.714 2.148 62.182 2.664 62.506C3.192 62.83 3.834 62.992 4.59 62.992C5.478 62.992 6.192 62.758 6.732 62.29C7.284 61.81 7.56 61.162 7.56 60.346C7.56 59.53 7.284 58.888 6.732 58.42C6.192 57.94 5.478 57.7 4.59 57.7V57.682L4.572 57.7H4.23L3.69 56.872L6.822 52.588H0.9V51.4H8.28V52.588ZM10.9934 62.47H12.4334L11.3534 66.52H10.2734L10.9934 62.47ZM23.4176 64.216C22.2656 64.216 21.2756 63.946 20.4476 63.406C19.6316 62.854 19.0616 62.098 18.7376 61.138L19.8176 60.508C20.0456 61.3 20.4656 61.912 21.0776 62.344C21.7016 62.776 22.4876 62.992 23.4356 62.992C24.3596 62.992 25.0856 62.788 25.6136 62.38C26.1416 61.972 26.4056 61.42 26.4056 60.724C26.4056 60.064 26.1656 59.566 25.6856 59.23C25.2176 58.894 24.4256 58.546 23.3096 58.186C21.9776 57.742 21.1136 57.394 20.7176 57.142C19.7576 56.566 19.2776 55.732 19.2776 54.64C19.2776 53.572 19.6496 52.732 20.3936 52.12C21.1256 51.496 22.0436 51.184 23.1476 51.184C24.0956 51.184 24.9356 51.436 25.6676 51.94C26.3996 52.432 26.9456 53.086 27.3056 53.902L26.2436 54.496C25.6676 53.104 24.6356 52.408 23.1476 52.408C22.3556 52.408 21.7196 52.606 21.2396 53.002C20.7716 53.386 20.5376 53.914 20.5376 54.586C20.5376 55.222 20.7536 55.69 21.1856 55.99C21.6296 56.302 22.3436 56.62 23.3276 56.944L24.2996 57.286C24.5036 57.346 24.7916 57.454 25.1636 57.61C25.5716 57.766 25.8536 57.898 26.0096 58.006C26.6456 58.39 27.0476 58.744 27.2156 59.068C27.5156 59.548 27.6656 60.088 27.6656 60.688C27.6656 61.756 27.2756 62.614 26.4956 63.262C25.7156 63.898 24.6896 64.216 23.4176 64.216ZM33.9825 54.784C35.3265 54.784 36.4005 55.258 37.2045 56.206C38.0325 57.142 38.4465 58.252 38.4465 59.536C38.4465 59.596 38.4345 59.782 38.4105 60.094H30.5085C30.6285 60.994 31.0125 61.714 31.6605 62.254C32.3085 62.794 33.1185 63.064 34.0905 63.064C35.4585 63.064 36.4245 62.554 36.9885 61.534L38.0325 62.146C37.6365 62.794 37.0905 63.304 36.3945 63.676C35.7105 64.036 34.9365 64.216 34.0725 64.216C32.6565 64.216 31.5045 63.772 30.6165 62.884C29.7285 61.996 29.2845 60.868 29.2845 59.5C29.2845 58.144 29.7225 57.022 30.5985 56.134C31.4745 55.234 32.6025 54.784 33.9825 54.784ZM33.9825 55.936C33.0465 55.936 32.2605 56.212 31.6245 56.764C31.0005 57.316 30.6285 58.042 30.5085 58.942H37.2225C37.0905 57.982 36.7245 57.244 36.1245 56.728C35.5005 56.2 34.7865 55.936 33.9825 55.936ZM48.0762 56.764V55H49.2642V64H48.0762V62.236C47.2482 63.556 46.0362 64.216 44.4402 64.216C43.1562 64.216 42.0582 63.76 41.1462 62.848C40.2462 61.936 39.7962 60.82 39.7962 59.5C39.7962 58.18 40.2462 57.064 41.1462 56.152C42.0582 55.24 43.1562 54.784 44.4402 54.784C46.0362 54.784 47.2482 55.444 48.0762 56.764ZM42.0102 62.038C42.6942 62.722 43.5342 63.064 44.5302 63.064C45.5262 63.064 46.3662 62.722 47.0502 62.038C47.7342 61.33 48.0762 60.484 48.0762 59.5C48.0762 58.504 47.7342 57.664 47.0502 56.98C46.3662 56.284 45.5262 55.936 44.5302 55.936C43.5342 55.936 42.6942 56.284 42.0102 56.98C41.3262 57.664 40.9842 58.504 40.9842 59.5C40.9842 60.484 41.3262 61.33 42.0102 62.038ZM52.7155 57.358C52.7155 58.054 53.3335 58.564 54.5695 58.888C54.9175 58.972 55.1455 59.032 55.2535 59.068C55.3615 59.092 55.5715 59.158 55.8835 59.266C56.2075 59.362 56.4295 59.446 56.5495 59.518C56.6815 59.59 56.8615 59.704 57.0895 59.86C57.3175 60.004 57.4795 60.154 57.5755 60.31C57.6715 60.454 57.7615 60.646 57.8455 60.886C57.9295 61.114 57.9715 61.36 57.9715 61.624C57.9715 62.392 57.6655 63.016 57.0535 63.496C56.4655 63.976 55.6855 64.216 54.7135 64.216C53.8735 64.216 53.1475 64.03 52.5355 63.658C51.9235 63.274 51.4915 62.77 51.2395 62.146L52.2475 61.552C52.4155 62.02 52.7155 62.392 53.1475 62.668C53.5915 62.932 54.1135 63.064 54.7135 63.064C55.3255 63.064 55.8235 62.944 56.2075 62.704C56.5915 62.464 56.7835 62.104 56.7835 61.624C56.7835 60.928 56.1655 60.418 54.9295 60.094C54.5815 60.01 54.3535 59.956 54.2455 59.932C54.1375 59.896 53.9215 59.83 53.5975 59.734C53.2855 59.626 53.0635 59.536 52.9315 59.464C52.8115 59.392 52.6375 59.284 52.4095 59.14C52.1815 58.984 52.0195 58.834 51.9235 58.69C51.8275 58.534 51.7375 58.342 51.6535 58.114C51.5695 57.874 51.5275 57.622 51.5275 57.358C51.5275 56.626 51.8155 56.014 52.3915 55.522C52.9915 55.03 53.7295 54.784 54.6055 54.784C55.3255 54.784 55.9615 54.946 56.5135 55.27C57.0775 55.594 57.4915 56.044 57.7555 56.62L56.7655 57.196C56.4295 56.356 55.7095 55.936 54.6055 55.936C54.0655 55.936 53.6155 56.062 53.2555 56.314C52.8955 56.566 52.7155 56.914 52.7155 57.358ZM67.2317 62.866C66.3077 63.766 65.1917 64.216 63.8837 64.216C62.5517 64.216 61.4297 63.766 60.5177 62.866C59.6057 61.954 59.1497 60.832 59.1497 59.5C59.1497 58.168 59.6057 57.052 60.5177 56.152C61.4297 55.24 62.5517 54.784 63.8837 54.784C65.2037 54.784 66.3197 55.24 67.2317 56.152C68.1557 57.052 68.6177 58.168 68.6177 59.5C68.6177 60.82 68.1557 61.942 67.2317 62.866ZM61.3637 62.038C62.0477 62.722 62.8877 63.064 63.8837 63.064C64.8797 63.064 65.7197 62.722 66.4037 62.038C67.0877 61.33 67.4297 60.484 67.4297 59.5C67.4297 58.504 67.0877 57.664 66.4037 56.98C65.7197 56.284 64.8797 55.936 63.8837 55.936C62.8877 55.936 62.0477 56.284 61.3637 56.98C60.6797 57.664 60.3377 58.504 60.3377 59.5C60.3377 60.484 60.6797 61.33 61.3637 62.038ZM74.8177 54.784C75.8977 54.784 76.7557 55.12 77.3917 55.792C78.0277 56.452 78.3457 57.346 78.3457 58.474V64H77.1577V58.474C77.1577 57.67 76.9417 57.046 76.5097 56.602C76.0897 56.158 75.4897 55.936 74.7097 55.936C73.8097 55.936 73.0957 56.218 72.5677 56.782C72.0517 57.346 71.7937 58.18 71.7937 59.284V64H70.6057V55H71.7937V56.404C72.4657 55.324 73.4737 54.784 74.8177 54.784ZM85.3228 51.4H89.8228C90.9508 51.4 91.8928 51.778 92.6488 52.534C93.4048 53.29 93.7828 54.232 93.7828 55.36C93.7828 56.488 93.4048 57.43 92.6488 58.186C91.8928 58.942 90.9508 59.32 89.8228 59.32H86.5828V64H85.3228V51.4ZM86.5828 58.132H89.8228C90.6028 58.132 91.2448 57.874 91.7488 57.358C92.2648 56.842 92.5228 56.176 92.5228 55.36C92.5228 54.556 92.2648 53.896 91.7488 53.38C91.2448 52.852 90.6028 52.588 89.8228 52.588H86.5828V58.132ZM102.779 56.764V55H103.967V64H102.779V62.236C101.951 63.556 100.739 64.216 99.1433 64.216C97.8593 64.216 96.7613 63.76 95.8493 62.848C94.9493 61.936 94.4993 60.82 94.4993 59.5C94.4993 58.18 94.9493 57.064 95.8493 56.152C96.7613 55.24 97.8593 54.784 99.1433 54.784C100.739 54.784 101.951 55.444 102.779 56.764ZM96.7133 62.038C97.3973 62.722 98.2373 63.064 99.2333 63.064C100.229 63.064 101.069 62.722 101.753 62.038C102.437 61.33 102.779 60.484 102.779 59.5C102.779 58.504 102.437 57.664 101.753 56.98C101.069 56.284 100.229 55.936 99.2333 55.936C98.2373 55.936 97.3973 56.284 96.7133 56.98C96.0293 57.664 95.6873 58.504 95.6873 59.5C95.6873 60.484 96.0293 61.33 96.7133 62.038ZM107.671 55V56.494C108.223 55.402 109.171 54.856 110.515 54.856V56.008C109.651 56.008 108.961 56.26 108.445 56.764C107.929 57.256 107.671 58 107.671 58.996V64H106.483V55H107.671ZM114.591 59.32L119.415 64H117.831L113.331 59.662V64H112.143V51.4H113.331V58.978L117.615 55H119.235L114.591 59.32ZM121.577 62.47H123.017L121.937 66.52H120.857L121.577 62.47ZM133.156 64.216C132.256 64.216 131.464 64.03 130.78 63.658C130.096 63.286 129.61 62.752 129.322 62.056L130.384 61.426C130.78 62.47 131.704 62.992 133.156 62.992C134.056 62.992 134.758 62.776 135.262 62.344C135.778 61.912 136.036 61.276 136.036 60.436V51.4H137.296V60.436C137.296 61.66 136.9 62.596 136.108 63.244C135.328 63.892 134.344 64.216 133.156 64.216ZM147.463 56.764V55H148.651V64H147.463V62.236C146.635 63.556 145.423 64.216 143.827 64.216C142.543 64.216 141.445 63.76 140.533 62.848C139.633 61.936 139.183 60.82 139.183 59.5C139.183 58.18 139.633 57.064 140.533 56.152C141.445 55.24 142.543 54.784 143.827 54.784C145.423 54.784 146.635 55.444 147.463 56.764ZM141.397 62.038C142.081 62.722 142.921 63.064 143.917 63.064C144.913 63.064 145.753 62.722 146.437 62.038C147.121 61.33 147.463 60.484 147.463 59.5C147.463 58.504 147.121 57.664 146.437 56.98C145.753 56.284 144.913 55.936 143.917 55.936C142.921 55.936 142.081 56.284 141.397 56.98C140.713 57.664 140.371 58.504 140.371 59.5C140.371 60.484 140.713 61.33 141.397 62.038ZM153.614 59.32L158.438 64H156.854L152.354 59.662V64H151.166V51.4H152.354V58.978L156.638 55H158.258L153.614 59.32ZM166.904 56.764V55H168.092V64H166.904V62.236C166.076 63.556 164.864 64.216 163.268 64.216C161.984 64.216 160.886 63.76 159.974 62.848C159.074 61.936 158.624 60.82 158.624 59.5C158.624 58.18 159.074 57.064 159.974 56.152C160.886 55.24 161.984 54.784 163.268 54.784C164.864 54.784 166.076 55.444 166.904 56.764ZM160.838 62.038C161.522 62.722 162.362 63.064 163.358 63.064C164.354 63.064 165.194 62.722 165.878 62.038C166.562 61.33 166.904 60.484 166.904 59.5C166.904 58.504 166.562 57.664 165.878 56.98C165.194 56.284 164.354 55.936 163.358 55.936C162.362 55.936 161.522 56.284 160.838 56.98C160.154 57.664 159.812 58.504 159.812 59.5C159.812 60.484 160.154 61.33 160.838 62.038ZM171.796 55V56.494C172.348 55.402 173.296 54.856 174.64 54.856V56.008C173.776 56.008 173.086 56.26 172.57 56.764C172.054 57.256 171.796 58 171.796 58.996V64H170.608V55H171.796ZM181.214 55V56.152H178.622V61.606C178.622 62.098 178.718 62.452 178.91 62.668C179.102 62.872 179.39 62.98 179.774 62.992C180.158 62.992 180.638 62.98 181.214 62.956V64C179.93 64.192 178.976 64.102 178.352 63.73C177.74 63.346 177.434 62.638 177.434 61.606V56.152H175.544V55H177.434V52.84L178.622 52.48V55H181.214ZM190.389 56.764V55H191.577V64H190.389V62.236C189.561 63.556 188.349 64.216 186.753 64.216C185.469 64.216 184.371 63.76 183.459 62.848C182.559 61.936 182.109 60.82 182.109 59.5C182.109 58.18 182.559 57.064 183.459 56.152C184.371 55.24 185.469 54.784 186.753 54.784C188.349 54.784 189.561 55.444 190.389 56.764ZM184.323 62.038C185.007 62.722 185.847 63.064 186.843 63.064C187.839 63.064 188.679 62.722 189.363 62.038C190.047 61.33 190.389 60.484 190.389 59.5C190.389 58.504 190.047 57.664 189.363 56.98C188.679 56.284 187.839 55.936 186.843 55.936C185.847 55.936 185.007 56.284 184.323 56.98C183.639 57.664 183.297 58.504 183.297 59.5C183.297 60.484 183.639 61.33 184.323 62.038Z" fill="#8B8BA5"/>
<path d="M9.18 136.452C8.352 137.628 7.182 138.216 5.67 138.216C4.17 138.216 2.994 137.628 2.142 136.452C1.314 135.264 0.9 133.68 0.9 131.7C0.9 129.708 1.314 128.13 2.142 126.966C2.994 125.778 4.17 125.184 5.67 125.184C7.182 125.184 8.352 125.778 9.18 126.966C10.02 128.13 10.44 129.708 10.44 131.7C10.44 133.692 10.02 135.276 9.18 136.452ZM3.078 135.606C3.714 136.53 4.578 136.992 5.67 136.992C6.774 136.992 7.632 136.53 8.244 135.606C8.868 134.694 9.18 133.392 9.18 131.7C9.18 130.008 8.868 128.706 8.244 127.794C7.632 126.87 6.774 126.408 5.67 126.408C4.578 126.408 3.714 126.87 3.078 127.794C2.466 128.718 2.16 130.02 2.16 131.7C2.16 133.38 2.466 134.682 3.078 135.606ZM19.8921 138H11.8821V136.866L16.4181 132.294C17.7141 130.998 18.3621 129.888 18.3621 128.964C18.3621 128.184 18.1161 127.566 17.6241 127.11C17.1441 126.642 16.5441 126.408 15.8241 126.408C14.5401 126.408 13.5981 127.002 12.9981 128.19L11.9361 127.56C12.3201 126.792 12.8541 126.204 13.5381 125.796C14.2221 125.388 14.9841 125.184 15.8241 125.184C16.8321 125.184 17.7141 125.526 18.4701 126.21C19.2381 126.87 19.6221 127.788 19.6221 128.964C19.6221 129.66 19.4301 130.344 19.0461 131.016C18.6621 131.676 18.0741 132.402 17.2821 133.194L13.6821 136.776H19.8921V138ZM20.8891 126.552L24.2191 125.4H25.2991V138H24.0391V126.786L21.2131 127.632L20.8891 126.552ZM39.1563 133.014H32.6763V131.862H39.1563V133.014ZM45.3579 126.552L48.6879 125.4H49.7679V138H48.5079V126.786L45.6819 127.632L45.3579 126.552ZM51.4751 126.552L54.8051 125.4H55.8851V138H54.6251V126.786L51.7991 127.632L51.4751 126.552ZM57.5923 126.552L60.9223 125.4H62.0023V138H60.7423V126.786L57.9163 127.632L57.5923 126.552ZM63.7095 126.552L67.0395 125.4H68.1195V138H66.8595V126.786L64.0335 127.632L63.7095 126.552ZM81.9766 133.014H75.4966V131.862H81.9766V133.014ZM96.6382 138H88.6282V136.866L93.1642 132.294C94.4602 130.998 95.1082 129.888 95.1082 128.964C95.1082 128.184 94.8622 127.566 94.3702 127.11C93.8902 126.642 93.2902 126.408 92.5702 126.408C91.2862 126.408 90.3442 127.002 89.7442 128.19L88.6822 127.56C89.0662 126.792 89.6002 126.204 90.2842 125.796C90.9682 125.388 91.7302 125.184 92.5702 125.184C93.5782 125.184 94.4602 125.526 95.2162 126.21C95.9842 126.87 96.3682 127.788 96.3682 128.964C96.3682 129.66 96.1762 130.344 95.7922 131.016C95.4082 131.676 94.8202 132.402 94.0282 133.194L90.4282 136.776H96.6382V138ZM106.095 138H98.0852V136.866L102.621 132.294C103.917 130.998 104.565 129.888 104.565 128.964C104.565 128.184 104.319 127.566 103.827 127.11C103.347 126.642 102.747 126.408 102.027 126.408C100.743 126.408 99.8012 127.002 99.2012 128.19L98.1392 127.56C98.5232 126.792 99.0572 126.204 99.7412 125.796C100.425 125.388 101.187 125.184 102.027 125.184C103.035 125.184 103.917 125.526 104.673 126.21C105.441 126.87 105.825 127.788 105.825 128.964C105.825 129.66 105.633 130.344 105.249 131.016C104.865 131.676 104.277 132.402 103.485 133.194L99.8852 136.776H106.095V138ZM115.552 138H107.542V136.866L112.078 132.294C113.374 130.998 114.022 129.888 114.022 128.964C114.022 128.184 113.776 127.566 113.284 127.11C112.804 126.642 112.204 126.408 111.484 126.408C110.2 126.408 109.258 127.002 108.658 128.19L107.596 127.56C107.98 126.792 108.514 126.204 109.198 125.796C109.882 125.388 110.644 125.184 111.484 125.184C112.492 125.184 113.374 125.526 114.13 126.21C114.898 126.87 115.282 127.788 115.282 128.964C115.282 129.66 115.09 130.344 114.706 131.016C114.322 131.676 113.734 132.402 112.942 133.194L109.342 136.776H115.552V138ZM125.009 138H116.999V136.866L121.535 132.294C122.831 130.998 123.479 129.888 123.479 128.964C123.479 128.184 123.233 127.566 122.741 127.11C122.261 126.642 121.661 126.408 120.941 126.408C119.657 126.408 118.715 127.002 118.115 128.19L117.053 127.56C117.437 126.792 117.971 126.204 118.655 125.796C119.339 125.388 120.101 125.184 120.941 125.184C121.949 125.184 122.831 125.526 123.587 126.21C124.355 126.87 124.739 127.788 124.739 128.964C124.739 129.66 124.547 130.344 124.163 131.016C123.779 131.676 123.191 132.402 122.399 133.194L118.799 136.776H125.009V138Z" fill="#8B8BA5"/>
<path d="M2.196 94.358C2.196 95.054 2.814 95.564 4.05 95.888C4.398 95.972 4.626 96.032 4.734 96.068C4.842 96.092 5.052 96.158 5.364 96.266C5.688 96.362 5.91 96.446 6.03 96.518C6.162 96.59 6.342 96.704 6.57 96.86C6.798 97.004 6.96 97.154 7.056 97.31C7.152 97.454 7.242 97.646 7.326 97.886C7.41 98.114 7.452 98.36 7.452 98.624C7.452 99.392 7.146 100.016 6.534 100.496C5.946 100.976 5.166 101.216 4.194 101.216C3.354 101.216 2.628 101.03 2.016 100.658C1.404 100.274 0.972 99.77 0.72 99.146L1.728 98.552C1.896 99.02 2.196 99.392 2.628 99.668C3.072 99.932 3.594 100.064 4.194 100.064C4.806 100.064 5.304 99.944 5.688 99.704C6.072 99.464 6.264 99.104 6.264 98.624C6.264 97.928 5.646 97.418 4.41 97.094C4.062 97.01 3.834 96.956 3.726 96.932C3.618 96.896 3.402 96.83 3.078 96.734C2.766 96.626 2.544 96.536 2.412 96.464C2.292 96.392 2.118 96.284 1.89 96.14C1.662 95.984 1.5 95.834 1.404 95.69C1.308 95.534 1.218 95.342 1.134 95.114C1.05 94.874 1.008 94.622 1.008 94.358C1.008 93.626 1.296 93.014 1.872 92.522C2.472 92.03 3.21 91.784 4.086 91.784C4.806 91.784 5.442 91.946 5.994 92.27C6.558 92.594 6.972 93.044 7.236 93.62L6.246 94.196C5.91 93.356 5.19 92.936 4.086 92.936C3.546 92.936 3.096 93.062 2.736 93.314C2.376 93.566 2.196 93.914 2.196 94.358ZM15.6819 96.716V92H16.8699V101H15.6819V99.596C15.0099 100.676 14.0019 101.216 12.6579 101.216C11.5779 101.216 10.7199 100.886 10.0839 100.226C9.44794 99.554 9.12994 98.654 9.12994 97.526V92H10.3179V97.526C10.3179 98.33 10.5279 98.954 10.9479 99.398C11.3799 99.842 11.9859 100.064 12.7659 100.064C13.6659 100.064 14.3739 99.782 14.8899 99.218C15.4179 98.654 15.6819 97.82 15.6819 96.716ZM24.207 91.784C25.491 91.784 26.583 92.24 27.483 93.152C28.395 94.064 28.851 95.18 28.851 96.5C28.851 97.82 28.395 98.936 27.483 99.848C26.583 100.76 25.491 101.216 24.207 101.216C22.611 101.216 21.399 100.556 20.571 99.236V104.6H19.383V92H20.571V93.764C21.399 92.444 22.611 91.784 24.207 91.784ZM21.597 99.038C22.281 99.722 23.121 100.064 24.117 100.064C25.113 100.064 25.953 99.722 26.637 99.038C27.321 98.33 27.663 97.484 27.663 96.5C27.663 95.504 27.321 94.664 26.637 93.98C25.953 93.284 25.113 92.936 24.117 92.936C23.121 92.936 22.281 93.284 21.597 93.98C20.913 94.664 20.571 95.504 20.571 96.5C20.571 97.484 20.913 98.33 21.597 99.038ZM35.6504 91.784C36.9344 91.784 38.0264 92.24 38.9264 93.152C39.8384 94.064 40.2944 95.18 40.2944 96.5C40.2944 97.82 39.8384 98.936 38.9264 99.848C38.0264 100.76 36.9344 101.216 35.6504 101.216C34.0544 101.216 32.8424 100.556 32.0144 99.236V104.6H30.8264V92H32.0144V93.764C32.8424 92.444 34.0544 91.784 35.6504 91.784ZM33.0404 99.038C33.7244 99.722 34.5644 100.064 35.5604 100.064C36.5564 100.064 37.3964 99.722 38.0804 99.038C38.7644 98.33 39.1064 97.484 39.1064 96.5C39.1064 95.504 38.7644 94.664 38.0804 93.98C37.3964 93.284 36.5564 92.936 35.5604 92.936C34.5644 92.936 33.7244 93.284 33.0404 93.98C32.3564 94.664 32.0144 95.504 32.0144 96.5C32.0144 97.484 32.3564 98.33 33.0404 99.038ZM49.8118 99.866C48.8878 100.766 47.7718 101.216 46.4638 101.216C45.1318 101.216 44.0098 100.766 43.0978 99.866C42.1858 98.954 41.7298 97.832 41.7298 96.5C41.7298 95.168 42.1858 94.052 43.0978 93.152C44.0098 92.24 45.1318 91.784 46.4638 91.784C47.7838 91.784 48.8998 92.24 49.8118 93.152C50.7358 94.052 51.1978 95.168 51.1978 96.5C51.1978 97.82 50.7358 98.942 49.8118 99.866ZM43.9438 99.038C44.6278 99.722 45.4678 100.064 46.4638 100.064C47.4598 100.064 48.2998 99.722 48.9838 99.038C49.6678 98.33 50.0098 97.484 50.0098 96.5C50.0098 95.504 49.6678 94.664 48.9838 93.98C48.2998 93.284 47.4598 92.936 46.4638 92.936C45.4678 92.936 44.6278 93.284 43.9438 93.98C43.2598 94.664 42.9178 95.504 42.9178 96.5C42.9178 97.484 43.2598 98.33 43.9438 99.038ZM54.3738 92V93.494C54.9258 92.402 55.8738 91.856 57.2178 91.856V93.008C56.3538 93.008 55.6638 93.26 55.1478 93.764C54.6318 94.256 54.3738 95 54.3738 95.996V101H53.1858V92H54.3738ZM63.7917 92V93.152H61.1997V98.606C61.1997 99.098 61.2957 99.452 61.4877 99.668C61.6797 99.872 61.9677 99.98 62.3517 99.992C62.7357 99.992 63.2157 99.98 63.7917 99.956V101C62.5077 101.192 61.5537 101.102 60.9297 100.73C60.3177 100.346 60.0117 99.638 60.0117 98.606V93.152H58.1217V92H60.0117V89.84L61.1997 89.48V92H63.7917ZM71.6079 89.984C72.8799 89.984 74.0079 90.296 74.9919 90.92C75.9519 91.52 76.6779 92.282 77.1699 93.206C77.6619 94.118 77.9079 95.096 77.9079 96.14C77.9079 97.424 77.6499 98.378 77.1339 99.002C76.6059 99.638 75.9999 99.956 75.3159 99.956C74.7999 99.956 74.3619 99.824 74.0019 99.56C73.6539 99.296 73.4199 98.912 73.2999 98.408C72.7719 99.056 72.1059 99.38 71.3019 99.38C70.4619 99.38 69.7659 99.104 69.2139 98.552C68.6619 98 68.3859 97.316 68.3859 96.5C68.3859 95.684 68.6619 95 69.2139 94.448C69.7659 93.896 70.4619 93.62 71.3019 93.62C72.0699 93.62 72.7059 93.908 73.2099 94.484V93.746H74.3259V97.634C74.3259 98.786 74.7159 99.362 75.4959 99.362C76.0599 99.362 76.5099 99.092 76.8459 98.552C77.1939 98.012 77.3679 97.208 77.3679 96.14C77.3679 94.532 76.8099 93.188 75.6939 92.108C74.6019 91.028 73.2399 90.488 71.6079 90.488C69.9279 90.488 68.5059 91.064 67.3419 92.216C66.1779 93.368 65.5959 94.796 65.5959 96.5C65.5959 98.252 66.1959 99.692 67.3959 100.82C68.5959 101.948 70.1079 102.512 71.9319 102.512C73.1199 102.512 74.1639 102.338 75.0639 101.99V102.53C74.1639 102.854 73.1199 103.016 71.9319 103.016C69.9639 103.016 68.3259 102.398 67.0179 101.162C65.7099 99.938 65.0559 98.384 65.0559 96.5C65.0559 94.7 65.6799 93.164 66.9279 91.892C68.1879 90.62 69.7479 89.984 71.6079 89.984ZM70.0419 97.814C70.4259 98.138 70.8699 98.3 71.3739 98.3C71.8899 98.3 72.3219 98.138 72.6699 97.814C73.0299 97.478 73.2099 97.04 73.2099 96.5C73.2099 95.96 73.0299 95.528 72.6699 95.204C72.3339 94.868 71.9019 94.7 71.3739 94.7C70.8579 94.7 70.4139 94.868 70.0419 95.204C69.6819 95.528 69.5019 95.96 69.5019 96.5C69.5019 97.028 69.6819 97.466 70.0419 97.814ZM84.2112 88.184V89.336C83.3352 89.264 82.6812 89.414 82.2492 89.786C81.8292 90.158 81.6192 90.776 81.6192 91.64V92H84.2112V93.152H81.6192V101H80.4312V93.152H78.9012V92H80.4312V91.64C80.4312 90.452 80.7552 89.558 81.4032 88.958C82.0632 88.358 82.9992 88.1 84.2112 88.184ZM92.4739 99.866C91.5499 100.766 90.4339 101.216 89.1259 101.216C87.7939 101.216 86.6719 100.766 85.7599 99.866C84.8479 98.954 84.3919 97.832 84.3919 96.5C84.3919 95.168 84.8479 94.052 85.7599 93.152C86.6719 92.24 87.7939 91.784 89.1259 91.784C90.4459 91.784 91.5619 92.24 92.4739 93.152C93.3979 94.052 93.8599 95.168 93.8599 96.5C93.8599 97.82 93.3979 98.942 92.4739 99.866ZM86.6059 99.038C87.2899 99.722 88.1299 100.064 89.1259 100.064C90.1219 100.064 90.9619 99.722 91.6459 99.038C92.3299 98.33 92.6719 97.484 92.6719 96.5C92.6719 95.504 92.3299 94.664 91.6459 93.98C90.9619 93.284 90.1219 92.936 89.1259 92.936C88.1299 92.936 87.2899 93.284 86.6059 93.98C85.9219 94.664 85.5799 95.504 85.5799 96.5C85.5799 97.484 85.9219 98.33 86.6059 99.038ZM103.39 99.866C102.466 100.766 101.35 101.216 100.042 101.216C98.7099 101.216 97.5879 100.766 96.6759 99.866C95.7639 98.954 95.3079 97.832 95.3079 96.5C95.3079 95.168 95.7639 94.052 96.6759 93.152C97.5879 92.24 98.7099 91.784 100.042 91.784C101.362 91.784 102.478 92.24 103.39 93.152C104.314 94.052 104.776 95.168 104.776 96.5C104.776 97.82 104.314 98.942 103.39 99.866ZM97.5219 99.038C98.2059 99.722 99.0459 100.064 100.042 100.064C101.038 100.064 101.878 99.722 102.562 99.038C103.246 98.33 103.588 97.484 103.588 96.5C103.588 95.504 103.246 94.664 102.562 93.98C101.878 93.284 101.038 92.936 100.042 92.936C99.0459 92.936 98.2059 93.284 97.5219 93.98C96.8379 94.664 96.4959 95.504 96.4959 96.5C96.4959 97.484 96.8379 98.33 97.5219 99.038ZM114.504 93.764V88.4H115.692V101H114.504V99.236C113.676 100.556 112.464 101.216 110.868 101.216C109.584 101.216 108.486 100.76 107.574 99.848C106.674 98.936 106.224 97.82 106.224 96.5C106.224 95.18 106.674 94.064 107.574 93.152C108.486 92.24 109.584 91.784 110.868 91.784C112.464 91.784 113.676 92.444 114.504 93.764ZM108.438 99.038C109.122 99.722 109.962 100.064 110.958 100.064C111.954 100.064 112.794 99.722 113.478 99.038C114.162 98.33 114.504 97.484 114.504 96.5C114.504 95.504 114.162 94.664 113.478 93.98C112.794 93.284 111.954 92.936 110.958 92.936C109.962 92.936 109.122 93.284 108.438 93.98C107.754 94.664 107.412 95.504 107.412 96.5C107.412 97.484 107.754 98.33 108.438 99.038ZM121.771 99.542L124.687 92H125.947L122.095 101.828C121.735 102.74 121.231 103.442 120.583 103.934C119.947 104.438 119.239 104.66 118.459 104.6V103.484C119.539 103.616 120.361 102.992 120.925 101.612L121.159 101.054L117.127 92H118.387L121.771 99.542ZM134.771 93.764V92H135.959V101H134.771V99.236C133.943 100.556 132.731 101.216 131.135 101.216C129.851 101.216 128.753 100.76 127.841 99.848C126.941 98.936 126.491 97.82 126.491 96.5C126.491 95.18 126.941 94.064 127.841 93.152C128.753 92.24 129.851 91.784 131.135 91.784C132.731 91.784 133.943 92.444 134.771 93.764ZM128.705 99.038C129.389 99.722 130.229 100.064 131.225 100.064C132.221 100.064 133.061 99.722 133.745 99.038C134.429 98.33 134.771 97.484 134.771 96.5C134.771 95.504 134.429 94.664 133.745 93.98C133.061 93.284 132.221 92.936 131.225 92.936C130.229 92.936 129.389 93.284 128.705 93.98C128.021 94.664 127.679 95.504 127.679 96.5C127.679 97.484 128.021 98.33 128.705 99.038ZM139.663 92V93.494C140.215 92.402 141.163 91.856 142.507 91.856V93.008C141.643 93.008 140.953 93.26 140.437 93.764C139.921 94.256 139.663 95 139.663 95.996V101H138.475V92H139.663ZM144.669 100.19C144.669 100.466 144.573 100.7 144.381 100.892C144.189 101.084 143.955 101.18 143.679 101.18C143.403 101.18 143.169 101.084 142.977 100.892C142.785 100.7 142.689 100.466 142.689 100.19C142.689 99.914 142.785 99.68 142.977 99.488C143.169 99.296 143.403 99.2 143.679 99.2C143.955 99.2 144.189 99.296 144.381 99.488C144.573 99.68 144.669 99.914 144.669 100.19ZM150.491 101.216C149.135 101.216 148.007 100.766 147.107 99.866C146.207 98.942 145.757 97.82 145.757 96.5C145.757 95.168 146.207 94.052 147.107 93.152C148.007 92.24 149.135 91.784 150.491 91.784C151.379 91.784 152.177 92 152.885 92.432C153.593 92.852 154.109 93.422 154.433 94.142L153.461 94.7C153.221 94.16 152.831 93.734 152.291 93.422C151.763 93.098 151.163 92.936 150.491 92.936C149.495 92.936 148.655 93.284 147.971 93.98C147.287 94.664 146.945 95.504 146.945 96.5C146.945 97.484 147.287 98.33 147.971 99.038C148.655 99.722 149.495 100.064 150.491 100.064C151.151 100.064 151.745 99.908 152.273 99.596C152.813 99.284 153.233 98.852 153.533 98.3L154.523 98.876C154.151 99.596 153.605 100.166 152.885 100.586C152.165 101.006 151.367 101.216 150.491 101.216ZM163.683 99.866C162.759 100.766 161.643 101.216 160.335 101.216C159.003 101.216 157.881 100.766 156.969 99.866C156.057 98.954 155.601 97.832 155.601 96.5C155.601 95.168 156.057 94.052 156.969 93.152C157.881 92.24 159.003 91.784 160.335 91.784C161.655 91.784 162.771 92.24 163.683 93.152C164.607 94.052 165.069 95.168 165.069 96.5C165.069 97.82 164.607 98.942 163.683 99.866ZM157.815 99.038C158.499 99.722 159.339 100.064 160.335 100.064C161.331 100.064 162.171 99.722 162.855 99.038C163.539 98.33 163.881 97.484 163.881 96.5C163.881 95.504 163.539 94.664 162.855 93.98C162.171 93.284 161.331 92.936 160.335 92.936C159.339 92.936 158.499 93.284 157.815 93.98C157.131 94.664 156.789 95.504 156.789 96.5C156.789 97.484 157.131 98.33 157.815 99.038ZM166.876 99.47H168.316L167.236 103.52H166.156L166.876 99.47ZM172.118 89.228C172.118 89.468 172.034 89.672 171.866 89.84C171.698 90.008 171.494 90.092 171.254 90.092C171.014 90.092 170.81 90.008 170.642 89.84C170.474 89.672 170.39 89.468 170.39 89.228C170.39 88.988 170.474 88.784 170.642 88.616C170.81 88.448 171.014 88.364 171.254 88.364C171.494 88.364 171.698 88.448 171.866 88.616C172.034 88.784 172.118 88.988 172.118 89.228ZM171.848 101H170.66V92H171.848V101ZM182.109 93.764V88.4H183.297V101H182.109V99.236C181.281 100.556 180.069 101.216 178.473 101.216C177.189 101.216 176.091 100.76 175.179 99.848C174.279 98.936 173.829 97.82 173.829 96.5C173.829 95.18 174.279 94.064 175.179 93.152C176.091 92.24 177.189 91.784 178.473 91.784C180.069 91.784 181.281 92.444 182.109 93.764ZM176.043 99.038C176.727 99.722 177.567 100.064 178.563 100.064C179.559 100.064 180.399 99.722 181.083 99.038C181.767 98.33 182.109 97.484 182.109 96.5C182.109 95.504 181.767 94.664 181.083 93.98C180.399 93.284 179.559 92.936 178.563 92.936C177.567 92.936 176.727 93.284 176.043 93.98C175.359 94.664 175.017 95.504 175.017 96.5C175.017 97.484 175.359 98.33 176.043 99.038Z" fill="#8B8BA5"/>
</svg>
